# xmcd
#
# Track frame offsets: 
#        150
#        11725
#        29125
#        43500
#        73150
#        92700
#        121275
#        140250
#        152325
#        164075
#        175925
#        194575
#        206150
#        220425
#        243225
#        256450
#
# Disc length: 3747 seconds
#
# Revision: 0
# Processed by: cddbd v1.4PL0 Copyright (c) Steve Scherf et al.
# Submitted via: ExactAudioCopy v0.90b2
#
DISCID=f10ea110
DTITLE=Various Artist - Electric Blues Guitar
DYEAR=1900
DGENRE=Blues
TTITLE0=No Picks
TTITLE1=Come on back home
TTITLE2=Lonesome room blues
TTITLE3=Steel on my hand
TTITLE4=Spanish Greens
TTITLE5=How can one woman be so mean
TTITLE6=I'll be coming home
TTITLE7=Steelin'
TTITLE8=The leading brand
TTITLE9=Crazy Woman Blues
TTITLE10=300 pounds of joy
TTITLE11=Late freight
TTITLE12=Draggin' my tail
TTITLE13=Drivin' wheel
TTITLE14=Okie dokie stomp
TTITLE15=We got to go
EXTD=
EXTT0=
EXTT1=
EXTT2=
EXTT3=
EXTT4=
EXTT5=
EXTT6=
EXTT7=
EXTT8=
EXTT9=
EXTT10=
EXTT11=
EXTT12=
EXTT13=
EXTT14=
EXTT15=
PLAYORDER=
